<?xml version="1.0" encoding="UTF-8" standalone="no"?>
<svg xmlns:dc="http://purl.org/dc/elements/1.1/" xmlns:cc="http://creativecommons.org/ns#" xmlns:rdf="http://www.w3.org/1999/02/22-rdf-syntax-ns#" xmlns:svg="http://www.w3.org/2000/svg" xmlns="http://www.w3.org/2000/svg" xmlns:xlink="http://www.w3.org/1999/xlink" xmlns:sodipodi="http://sodipodi.sourceforge.net/DTD/sodipodi-0.dtd" xmlns:inkscape="http://www.inkscape.org/namespaces/inkscape" version="1.1" id="Layer_1" x="0px" y="0px" viewBox="0 0 80 80" xml:space="preserve" inkscape:version="0.91 r13725" sodipodi:docname="23 bank building credit debit account Transaction bank transfer activity.svg" width="80" height="80"><defs id="defs16"><linearGradient inkscape:collect="always" xlink:href="#linearGradient3900" id="linearGradient3568" gradientUnits="userSpaceOnUse" gradientTransform="matrix(2.5630898,0,0,2.5630898,-2423.921,-1321.6993)" x1="949.86969" y1="518.01434" x2="974.38977" y2="544.6571"/><linearGradient id="linearGradient3900"><stop style="stop-color:#24f7bc;stop-opacity:1" offset="0" id="stop3902"/><stop style="stop-color:#24c4fc;stop-opacity:1" offset="1" id="stop3904"/></linearGradient></defs><sodipodi:namedview pagecolor="#ffffff" bordercolor="#666666" borderopacity="1" objecttolerance="10" gridtolerance="10" guidetolerance="10" inkscape:pageopacity="0" inkscape:pageshadow="2" inkscape:window-width="1366" inkscape:window-height="705" id="namedview14" showgrid="true" inkscape:zoom="1.7383042" inkscape:cx="-157.09994" inkscape:cy="51.61453" inkscape:window-x="-8" inkscape:window-y="-8" inkscape:window-maximized="1" inkscape:current-layer="Layer_1"><inkscape:grid type="xygrid" id="grid3347"/></sodipodi:namedview><style type="text/css" id="style3">
	.st0{fill:#010101;}
	.st1{fill:#060707;}
	.st2{fill:none;stroke:#010101;stroke-width:2;stroke-linecap:round;stroke-linejoin:round;stroke-miterlimit:10;}
	.st3{fill:#2BB673;}
</style><g id="g3353"><rect style="fill:url(#linearGradient3568);fill-opacity:1;stroke:none" id="rect3520" width="80" height="80" x="0" y="0" rx="16.906679" ry="16.906679"/><path style="fill:#ffffff" inkscape:connector-curvature="0" id="XMLID_47_" d="M 40,20 20,25.699219 20,28 l 2,0 36,0 2,0 0,-2.199219 L 40,20 Z m 0,2 c 1.1,0 2,0.9 2,2 0,1.1 -0.9,2 -2,2 -1.1,0 -2,-0.9 -2,-2 0,-1.1 0.9,-2 2,-2 z m -7,2 c 0.6,0 1,0.4 1,1 0,0.6 -0.4,1 -1,1 -0.6,0 -1,-0.4 -1,-1 0,-0.6 0.4,-1 1,-1 z m 14,0 c 0.6,0 1,0.4 1,1 0,0.6 -0.4,1 -1,1 -0.6,0 -1,-0.4 -1,-1 0,-0.6 0.4,-1 1,-1 z m -24,6 0,2 1,0 4,0 10,0 4,0 10,0 4,0 1,0 0,-2 -34,0 z m 2,4 0,18 2,0 0,-18 -2,0 z m 4,0 0,18 8,0 0,-18 -8,0 z m 10,0 0,18 2,0 0,-18 -2,0 z m 4,0 0,18 8,0 0,-18 -8,0 z m 10,0 0,18 2,0 0,-18 -2,0 z m -30,20 0,2 34,0 0,-2 -1,0 -4,0 -10,0 -4,0 -10,0 -4,0 -1,0 z m -3,4 0,2 40,0 0,-2 -2,0 -36,0 -2,0 z"/></g>
	<metadata>
		<rdf:RDF xmlns:rdf="http://www.w3.org/1999/02/22-rdf-syntax-ns#" xmlns:rdfs="http://www.w3.org/2000/01/rdf-schema#" xmlns:dc="http://purl.org/dc/elements/1.1/">
			<rdf:Description about="https://iconscout.com/legal#licenses" dc:title="23 bank building credit debit account Transaction bank transfer activity" dc:description="23 bank building credit debit account Transaction bank transfer activity" dc:publisher="Iconscout" dc:date="2017-03-08" dc:format="image/svg+xml" dc:language="en">
				<dc:creator>
					<rdf:Bag>
						<rdf:li>Jemis Mali</rdf:li>
					</rdf:Bag>
				</dc:creator>
			</rdf:Description>
		</rdf:RDF>
    </metadata></svg>
